<svg xmlns="http://www.w3.org/2000/svg" viewBox="0 0 80 80" role="img" aria-label="Bleed AI">
  <rect width="80" height="80" fill="#111111"/>
  <rect x="8" y="8" width="64" height="64" fill="none" stroke="#FF3D00" stroke-width="2"/>

  <g transform="translate(11.15,70.4) scale(0.0302,-0.0302)" fill="#F0F0F0" stroke="none">
    <path d="M473 1612 c-249 -70 -449 -130 -445 -133 6 -6 853 -245 910 -257 25
    -5 955 250 944 259 -4 3 -216 61 -472 129 -256 68 -469 124 -475 126 -5 2
    -213 -54 -462 -124z"/>

    <path d="M1548 1333 c-84 -23 -252 -70 -374 -104 l-221 -61 -364 102 -364 101
    -87 -22 c-49 -13 -88 -26 -88 -29 0 -4 95 -33 210 -65 175 -49 209 -61 204
    -74 -88 -197 -67 -347 77 -542 86 -117 363 -359 409 -359 40 1 257 180 359
    296 125 142 173 243 179 379 3 77 0 100 -21 158 -14 37 -22 69 -18 71 3 1 110
    32 238 67 127 35 231 65 229 66 -1 1 -49 15 -108 31 l-106 29 -154 -44z m-924
    -225 c8 -13 8 -23 -2 -38 -15 -24 -17 -246 -2 -255 15 -9 12 -41 -5 -55 -30
    -24 -79 16 -55 45 13 15 10 250 -3 276 -5 11 -2 22 9 33 20 20 43 18 58 -6z
    m720 0 c8 -13 8 -23 -2 -38 -16 -26 -16 -230 0 -265 9 -21 9 -29 -4 -41 -30
    -30 -84 10 -58 41 13 15 10 250 -3 276 -5 11 -2 22 9 33 20 20 43 18 58 -6z
    m-583 -356 c-2 -174 0 -232 10 -237 9 -6 11 14 7 88 -6 103 2 125 40 113 18
    -6 19 -15 14 -124 -4 -103 -2 -119 13 -132 16 -13 17 -4 14 165 l-4 180 30 0
    c24 0 31 -5 33 -23 2 -13 0 -28 -5 -35 -5 -7 -8 -83 -7 -171 1 -154 1 -159 24
    -176 22 -16 26 -17 47 -3 21 14 23 23 23 95 0 44 -4 88 -10 98 -7 13 -5 24 8
    40 16 19 22 21 40 11 23 -12 30 -45 12 -56 -5 -3 -10 -37 -10 -75 0 -60 2 -69
    16 -63 14 5 16 25 13 147 l-4 141 30 0 c28 0 30 -2 28 -35 -7 -105 -9 -196 -5
    -203 2 -4 10 -3 18 4 19 16 21 389 2 419 -17 26 1 55 33 55 20 0 24 -5 23 -27
    0 -16 -1 -127 -2 -247 l-2 -219 -114 -71 c-63 -39 -119 -71 -125 -71 -20 0
    -223 153 -231 174 -4 11 -7 102 -8 203 -1 100 -4 199 -8 219 -5 30 -3 40 11
    50 11 9 24 10 33 5 14 -8 16 -39 13 -239z"/>
  </g>
</svg>