<svg xmlns="http://www.w3.org/2000/svg" viewBox="0 0 80 80" role="img" aria-label="Duseca Software">
  <rect width="80" height="80" fill="#111111"/>
  <rect x="8" y="8" width="64" height="64" fill="none" stroke="#FF3D00" stroke-width="2"/>

  <svg x="10" y="10" width="60" height="60" viewBox="0 0 200 200" preserveAspectRatio="xMidYMid meet">
    <g transform="translate(0.000000,200.000000) scale(0.100000,-0.100000)" fill="#F0F0F0" stroke="none">
      <path d="M1185 1552 c-28 -10 -65 -28 -83 -40 l-32 -23 46 -53 45 -53 30 28
      c75 70 221 41 259 -51 12 -30 13 -30 90 -30 l78 0 -10 42 c-28 125 -141 198
      -302 198 -41 -1 -93 -8 -121 -18z"/>
      <path d="M420 1258 l1 -303 29 33 c16 17 33 32 37 32 4 0 22 -14 40 -32 21
      -21 33 -27 34 -17 0 7 0 116 -1 242 l-1 227 114 0 c153 0 204 -16 272 -84 66
      -65 89 -129 89 -241 0 -146 -57 -247 -167 -296 -45 -20 -68 -23 -176 -24 -116
      0 -124 1 -127 20 -2 11 -20 34 -41 52 l-38 32 -32 -31 c-32 -31 -33 -34 -33
      -115 l0 -83 173 0 c187 0 274 13 360 53 163 76 252 258 225 462 -18 138 -95
      254 -208 314 -89 48 -168 61 -372 61 l-178 0 0 -302z"/>
      <path d="M791 1189 c-57 -16 -106 -31 -109 -34 -3 -3 4 -15 16 -28 l22 -23
      -76 -87 c-41 -48 -78 -87 -82 -87 -3 0 -22 16 -42 35 l-36 35 -119 -147 c-125
      -155 -113 -158 35 -9 41 42 79 76 85 76 6 0 26 -16 45 -35 19 -19 38 -35 43
      -35 5 0 41 30 80 67 40 37 87 81 104 97 l33 30 25 -24 c14 -13 27 -22 29 -19
      6 7 58 211 54 213 -2 2 -50 -10 -107 -25z"/>
      <path d="M1223 1184 c4 -21 7 -53 7 -71 0 -31 2 -33 73 -54 39 -12 89 -30 109
      -40 93 -48 90 -176 -5 -220 -76 -34 -168 -20 -212 33 -25 29 -28 30 -37 14 -6
      -10 -26 -36 -45 -57 -42 -46 -38 -56 42 -94 66 -31 169 -42 246 -26 155 32
      248 165 218 310 -9 46 -19 64 -59 102 -42 41 -61 51 -181 89 -74 24 -140 45
      -148 48 -11 4 -13 -3 -8 -34z"/>
    </g>
  </svg>
</svg>