<svg xmlns="http://www.w3.org/2000/svg" viewBox="0 0 80 80" role="img" aria-label="Product Genius">
  <rect width="80" height="80" fill="#111111"/>
  <rect x="8" y="8" width="64" height="64" fill="none" stroke="#FF3D00" stroke-width="2"/>

  <svg x="10" y="10" width="60" height="60" viewBox="0 0 200 200" preserveAspectRatio="xMidYMid meet">
    <g transform="translate(0.000000,200.000000) scale(0.100000,-0.100000)" fill="#F0F0F0" stroke="none">
      <path d="M902 1639 c-57 -28 -108 -91 -129 -156 l-17 -53 -155 0 c-86 0 -161
      -4 -168 -8 -7 -5 -23 -183 -47 -532 -20 -289 -36 -528 -36 -531 0 -25 150 -13
      300 23 96 23 245 82 304 119 l39 25 112 -56 c61 -31 149 -67 196 -80 152 -41
      330 -62 343 -41 9 14 -66 1055 -76 1069 -8 9 -55 12 -172 12 l-161 0 -17 58
      c-32 108 -113 172 -219 172 -35 0 -69 -7 -97 -21z m161 -33 c59 -25 117 -103
      117 -157 0 -18 -9 -19 -186 -19 l-186 0 6 33 c15 77 108 157 183 157 18 0 48
      -6 66 -14z m467 -243 c1 -10 16 -232 34 -493 19 -261 31 -478 27 -481 -10 -11
      -149 10 -251 37 -52 14 -141 47 -197 74 l-103 49 88 88 c127 128 182 244 182
      385 0 79 -15 121 -58 161 -59 56 -150 54 -217 -4 l-35 -31 -35 30 c-65 58
      -146 62 -208 11 -48 -40 -67 -85 -67 -161 0 -143 54 -262 177 -388 l83 -85
      -22 -17 c-34 -26 -182 -86 -267 -108 -82 -22 -248 -47 -256 -39 -4 5 49 829
      61 937 l5 52 530 0 c497 0 529 -1 529 -17z m-613 -203 c18 -11 41 -36 50 -57
      10 -21 24 -38 32 -38 8 0 24 18 37 40 42 76 125 98 183 50 107 -91 36 -351
      -140 -509 -86 -77 -78 -78 -173 16 -98 98 -151 193 -168 304 -14 92 -5 139 37
      181 39 39 91 44 142 13z"/>
    </g>
  </svg>
</svg>